<?xml version="1.0" encoding="utf-8"?>
<!-- Generator: Adobe Illustrator 24.2.1, SVG Export Plug-In . SVG Version: 6.00 Build 0)  -->
<svg version="1.1" id="New-tab-line-icon" xmlns="http://www.w3.org/2000/svg" xmlns:xlink="http://www.w3.org/1999/xlink" x="0px"
	 y="0px" viewBox="0 0 16 16" style="enable-background:new 0 0 16 16;" xml:space="preserve">
<g>
	<path fill="white" d="M14,12.5c0,0.827-0.673,1.5-1.5,1.5h-9C2.673,14,2,13.327,2,12.5v-9C2,2.673,2.673,2,3.5,2H8V1H3.5C2.122,1,1,2.122,1,3.5
		v9C1,13.879,2.122,15,3.5,15h9c1.379,0,2.5-1.121,2.5-2.5V8h-1V12.5z"/>
	<polygon fill="white" points="13,3 13,1 12,1 12,3 10,3 10,4 12,4 12,6 13,6 13,4 15,4 15,3 	"/>
</g>
</svg>
